<svg xmlns="http://www.w3.org/2000/svg" xml:space="preserve" width="800" height="800" viewBox="0 0 512 512">
  <path d="M470.161 380.968C427.154 454.513 347.347 503.916 256 503.916 119.081 503.916 8.084 392.921 8.084 256 8.084 119.08 119.081 8.084 256 8.084 392.92 8.084 503.916 119.08 503.916 256c0 36.384-7.837 70.939-21.918 102.066" style="fill:#90c8ec"/>
  <circle cx="218.662" cy="125.014" r="37.335" style="fill:#578cad"/>
  <circle cx="349.216" cy="148.642" r="23.619" style="fill:#578cad"/>
  <path d="M80.093 336.428c-19.678 0-37.505 7.903-50.503 20.697 20.043 44.81 53.001 82.576 94.138 108.578 17.24-13.156 28.371-33.908 28.371-57.267.001-39.769-32.239-72.008-72.006-72.008z" style="fill:#578cad"/>
  <circle cx="331.959" cy="351.07" r="42.84" style="fill:#578cad"/>
  <circle cx="166.405" cy="270.099" r="23.216" style="fill:#578cad"/>
  <path d="M437.019 74.982C388.667 26.628 324.379 0 256 0S123.334 26.628 74.982 74.982C26.628 123.333 0 187.62 0 256c0 54.144 16.71 105.713 47.666 148.846.36.503.724 1.004 1.089 1.504.575.788 1.144 1.579 1.728 2.362a255.5 255.5 0 0 0 42.462 44.659c1.063.881 2.135 1.746 3.21 2.609l.196.157C141.544 492.332 197.256 512 256 512c45.527 0 90.237-12.104 129.297-35.005 37.904-22.223 69.663-54.018 91.843-91.947a8.086 8.086 0 0 0-13.957-8.163C420.279 450.254 340.892 495.832 256 495.832c-43.113 0-83.6-11.442-118.6-31.438 14.599-14.874 22.783-34.718 22.783-55.958 0-44.163-35.928-80.092-80.092-80.092-17.215 0-33.637 5.422-47.285 15.448C22.07 316.59 16.168 286.971 16.168 256 16.168 123.756 123.756 16.168 256 16.168S495.832 123.756 495.832 256c0 34.419-7.132 67.638-21.199 98.734a8.083 8.083 0 0 0 4.034 10.697 8.083 8.083 0 0 0 10.697-4.033C504.385 328.194 512 292.734 512 256c0-68.38-26.628-132.667-74.981-181.018zM80.093 344.512c35.247 0 63.923 28.676 63.923 63.923 0 18.178-7.518 35.076-20.804 47.178-35.888-23.953-64.984-57.311-83.732-96.531 11.422-9.432 25.642-14.57 40.613-14.57z" style="fill:#231f20"/>
  <path d="M264.084 125.019c0-25.045-20.374-45.42-45.419-45.42s-45.419 20.375-45.419 45.42c0 25.044 20.374 45.419 45.419 45.419s45.419-20.376 45.419-45.419zm-74.669 0c0-16.13 13.122-29.252 29.251-29.252s29.25 13.122 29.25 29.252c0 16.129-13.122 29.251-29.251 29.251s-29.25-13.123-29.25-29.251zM380.924 148.637c0-17.482-14.221-31.704-31.702-31.704-17.482 0-31.704 14.222-31.704 31.704 0 17.481 14.222 31.704 31.704 31.704 17.48-.001 31.702-14.222 31.702-31.704zm-47.239 0c0-8.566 6.97-15.536 15.536-15.536 8.565 0 15.534 6.97 15.534 15.536s-6.969 15.536-15.534 15.536c-8.566-.001-15.536-6.97-15.536-15.536zM281.035 351.076c0 28.079 22.844 50.924 50.923 50.924 28.08 0 50.925-22.844 50.925-50.924s-22.845-50.924-50.925-50.924c-28.079 0-50.923 22.843-50.923 50.924zm50.923-34.756c19.165 0 34.757 15.592 34.757 34.756s-15.592 34.756-34.757 34.756c-19.164 0-34.755-15.591-34.755-34.756.001-19.165 15.59-34.756 34.755-34.756zM135.105 270.096c0 17.259 14.041 31.301 31.299 31.301 17.259 0 31.301-14.042 31.301-31.301s-14.042-31.3-31.301-31.3c-17.258 0-31.299 14.04-31.299 31.3zm46.432 0c0 8.344-6.789 15.133-15.133 15.133-8.343 0-15.13-6.788-15.13-15.133 0-8.344 6.787-15.131 15.13-15.131 8.344-.001 15.133 6.787 15.133 15.131z" style="fill:#231f20"/>
  <g style="opacity:.2">
    <path d="M33.432 256c0-132.668 104.213-240.999 235.242-247.597A252.504 252.504 0 0 0 256 8.084C119.081 8.084 8.084 119.08 8.084 256c0 136.921 110.997 247.916 247.916 247.916 4.251 0 8.478-.108 12.678-.319C137.646 497 33.432 388.671 33.432 256z" style="fill:#231f20"/>
  </g>
</svg>
